HIERARCHY
ROOT Hips
{
  OFFSET 52.8768 56.1087 7.03384
  CHANNELS 6 Xposition Yposition Zposition Zrotation Xrotation Yrotation
  JOINT spine
  {
    OFFSET 0 6.3926 0.367606
    CHANNELS 3 Zrotation Xrotation Yrotation
    JOINT spine1
    {
      OFFSET 0 9.17611 0
      CHANNELS 3 Zrotation Xrotation Yrotation
      JOINT spine2
      {
        OFFSET 0 8.79238 0
        CHANNELS 3 Zrotation Xrotation Yrotation
        JOINT Neck
        {
          OFFSET 0 22.5737 1.07624
          CHANNELS 3 Zrotation Xrotation Yrotation
          JOINT Head
          {
            OFFSET 0 6.82011 0
            CHANNELS 3 Zrotation Xrotation Yrotation
            End Site
            {
              OFFSET 0 16.5085 -5.44427
            }
          }
        }
        JOINT RightShoulder
        {
          OFFSET -3.70221 9.49509 -0.515508
          CHANNELS 3 Zrotation Xrotation Yrotation
          JOINT RightArm
          {
            OFFSET 0 12.4537 0
            CHANNELS 3 Zrotation Xrotation Yrotation
            JOINT RightArmRoll
            {
              OFFSET 0 6.28686 0
              CHANNELS 3 Zrotation Xrotation Yrotation
              JOINT RightForeArm
              {
                OFFSET 0 18.3114 0
                CHANNELS 3 Zrotation Xrotation Yrotation
                JOINT RightForeArmRoll
                {
                  OFFSET 0 7.05483 0
                  CHANNELS 3 Zrotation Xrotation Yrotation
                  JOINT RightHand
                  {
                    OFFSET 0 14.1575 0
                    CHANNELS 3 Zrotation Xrotation Yrotation
                    End Site
                    {
                      OFFSET 0 0 0
                    }
                  }
                }
              }
            }
          }
        }
        JOINT LeftShoulder
        {
          OFFSET 3.70221 9.49509 -0.515508
          CHANNELS 3 Zrotation Xrotation Yrotation
          JOINT LeftArm
          {
            OFFSET 0 12.4537 0
            CHANNELS 3 Zrotation Xrotation Yrotation
            JOINT LeftArmRoll
            {
              OFFSET 0 6.28685 0
              CHANNELS 3 Zrotation Xrotation Yrotation
              JOINT LeftForeArm
              {
                OFFSET 0 18.3114 0
                CHANNELS 3 Zrotation Xrotation Yrotation
                JOINT LeftForeArmRoll
                {
                  OFFSET 0 7.05483 0
                  CHANNELS 3 Zrotation Xrotation Yrotation
                  JOINT LeftHand
                  {
                    OFFSET 0 14.1575 0
                    CHANNELS 3 Zrotation Xrotation Yrotation
                    End Site
                    {
                      OFFSET 0 0 0
                    }
                  }
                }
              }
            }
          }
        }
      }
    }
  }
  JOINT RightUpLeg
  {
    OFFSET -5.66616 -1.03903 -0.87161
    CHANNELS 3 Zrotation Xrotation Yrotation
    JOINT RightUpLegRoll
    {
      OFFSET 0 16.6005 0
      CHANNELS 3 Zrotation Xrotation Yrotation
      JOINT RightLeg
      {
        OFFSET 0 -20.5572 0
        CHANNELS 3 Zrotation Xrotation Yrotation
        JOINT RightLegRoll
        {
          OFFSET 0 20.6244 0
          CHANNELS 3 Zrotation Xrotation Yrotation
          JOINT RightFoot
          {
            OFFSET 0 17.1664 0
            CHANNELS 3 Zrotation Xrotation Yrotation
            JOINT RightToeBase
            {
              OFFSET 0 14.3502 0
              CHANNELS 3 Zrotation Xrotation Yrotation
              End Site
              {
                OFFSET 0.00608252 6.9497 -0.801061
              }
            }
          }
        }
      }
    }
  }
  JOINT LeftUpLeg
  {
    OFFSET 5.66616 -1.03903 -0.87161
    CHANNELS 3 Zrotation Xrotation Yrotation
    JOINT LeftUpLegRoll
    {
      OFFSET 0 16.6006 0
      CHANNELS 3 Zrotation Xrotation Yrotation
      JOINT LeftLeg
      {
        OFFSET 0 20.5571 0
        CHANNELS 3 Zrotation Xrotation Yrotation
        JOINT LeftLegRoll
        {
          OFFSET 0 20.8151 0
          CHANNELS 3 Zrotation Xrotation Yrotation
          JOINT LeftFoot
          {
            OFFSET 0 16.9757 0
            CHANNELS 3 Zrotation Xrotation Yrotation
            JOINT LeftToeBase
            {
              OFFSET 0 14.3502 0
              CHANNELS 3 Zrotation Xrotation Yrotation
              End Site
              {
                OFFSET -0.0272592 6.94971 -0.80106
              }
            }
          }
        }
      }
    }
  }
}
MOTION
Frames: 14
Frame Time: 0.00208333
53.1328 57.0861 6.94699 -0.781476 10.4766 3.36758 -0.464575 1.71986 -0.772862 -0.904207 7.44835 -1.47645 -0.888594 9.09309 -1.46385 9.01005 -3.97097 1.00776 -3.554 5.80043 2.49805 54.7706 1.86003 1.78529 113.605 23.9865 -37.6458 8.72812e-007 1.62902e-006 -5.95815e-006 -0.0147405 82.9815 -2.90689 1.99411e-006 -3.26096e-006 -2.99999 8.02894 -4.95144 0.697699 -39.234 -0.310812 -2.53983 -122.625 23.6961 36.8095 -6.52535e-006 -3.67341e-007 1.36208e-006 -18.299 79.8721 21.1192 -8.59545e-007 -6.32409e-006 3 -8.02887 -4.95143 -0.697683 89.8115 81.4966 93.2248 180 7.01579e-015 179.071 178.641 75.4938 177.923 2.30208e-006 4.58029e-006 1.43371 -17.0568 65.3728 17.5714 8.12813 25.2401 -3.48398 -50.5109 86.6394 -129.616 4.54188e-006 -4.6773e-006 -1.08498 13.6385 -77.9262 13.9187 -3.49284e-006 5.06013e-006 -1.76515 16.4571 63.1241 -16.1264 -8.13473 25.2328 3.48699 
53.0774 57.1081 6.89149 -0.848952 10.2517 3.30206 -0.462078 1.73819 -0.778764 -0.898739 7.48504 -1.48935 -0.882963 9.12978 -1.47688 8.98138 -3.92145 1.04954 -3.51363 5.86355 2.5428 54.8409 1.9483 1.83261 113.623 24.0781 -37.4973 8.72812e-007 1.62902e-006 -5.95815e-006 0.514703 82.8245 -3.36206 1.99411e-006 -3.26096e-006 -2.99999 8.02894 -4.95144 0.697699 -39.282 -0.483649 -2.38052 -122.649 23.6929 36.885 -6.52535e-006 -3.67341e-007 1.36208e-006 -18.3091 79.8335 21.1172 -8.59545e-007 -6.32409e-006 3 -8.02887 -4.95143 -0.697683 91.0284 81.5883 92.0562 180 7.01578e-015 179.066 178.644 75.4586 177.918 2.30208e-006 4.58029e-006 1.43577 -17.0571 65.366 17.5659 8.12813 25.2401 -3.48398 -53.459 86.6037 -126.61 4.54188e-006 -4.6773e-006 -1.08516 13.8399 -77.9105 14.0927 -3.49284e-006 5.06013e-006 -1.76683 16.4672 63.1284 -16.1277 -8.13473 25.2328 3.48699 
53.0645 57.0854 6.84235 -0.918656 10.0247 3.23249 -0.459705 1.75723 -0.785247 -0.893478 7.52313 -1.50341 -0.877526 9.16787 -1.49107 8.94807 -3.87349 1.09539 -3.46972 5.92694 2.59094 54.9077 2.04727 1.88777 113.644 24.1723 -37.338 8.72812e-007 1.62902e-006 -5.95815e-006 1.05053 82.6584 -3.81999 1.99411e-006 -3.26096e-006 -2.99999 8.02894 -4.95144 0.697699 -39.3277 -0.66861 -2.21075 -122.679 23.6895 36.966 -6.52535e-006 -3.67341e-007 1.36208e-006 -18.3171 79.7906 21.1118 -8.59545e-007 -6.32409e-006 3 -8.02887 -4.95143 -0.697683 92.322 81.6819 90.8121 180 7.01577e-015 179.062 178.641 75.4187 177.919 2.30208e-006 4.58029e-006 1.4377 -17.0575 65.3593 17.5605 8.12813 25.2401 -3.48398 -56.4891 86.5567 -123.522 4.54188e-006 -4.6773e-006 -1.08521 14.0309 -77.8909 14.2575 -3.49284e-006 5.06013e-006 -1.7683 16.4775 63.1335 -16.1295 -8.13473 25.2328 3.48699 
53.0417 57.1019 6.77007 -0.99011 9.7973 3.16039 -0.457371 1.77652 -0.792149 -0.888265 7.56176 -1.51831 -0.872127 9.20649 -1.5061 8.911 -3.82641 1.1439 -3.42324 5.99069 2.64117 54.9704 2.15373 1.94867 113.668 24.2678 -37.1705 8.72812e-007 1.62902e-006 -5.95815e-006 1.58496 82.4845 -4.2736 1.99411e-006 -3.26096e-006 -2.99999 8.02894 -4.95144 0.697699 -39.3706 -0.861687 -2.03409 -122.714 23.6853 37.0499 -6.52535e-006 -3.67341e-007 1.36208e-006 -18.3223 79.7434 21.1023 -8.59545e-007 -6.32409e-006 3 -8.02887 -4.95143 -0.697683 93.678 81.7747 89.5063 180 7.01576e-015 179.057 178.633 75.3751 177.923 2.30208e-006 4.58029e-006 1.4395 -17.0578 65.3529 17.5552 8.12813 25.2401 -3.48398 -59.5276 86.4983 -120.424 4.54188e-006 -4.6773e-006 -1.08514 14.2118 -77.8683 14.4134 -3.49284e-006 5.06013e-006 -1.76958 16.4879 63.1393 -16.1316 -8.13473 25.2328 3.48699 
53.0161 57.0886 6.72635 -1.0628 9.57093 3.08724 -0.454993 1.79565 -0.799307 -0.882943 7.60004 -1.53372 -0.866613 9.24477 -1.52164 8.87103 -3.77955 1.19366 -3.37511 6.05491 2.69223 55.0285 2.26443 2.01321 113.697 24.3629 -36.9974 8.72812e-007 1.62902e-006 -5.95815e-006 2.11116 82.3039 -4.71673 1.99411e-006 -3.26096e-006 -2.99999 8.02894 -4.95144 0.697699 -39.4101 -1.05887 -1.85415 -122.753 23.68 37.1342 -6.52535e-006 -3.67341e-007 1.36208e-006 -18.3241 79.6922 21.0879 -8.59545e-007 -6.32409e-006 3 -8.02887 -4.95143 -0.697683 95.08 81.8645 88.1549 180 7.01575e-015 179.052 178.62 75.3293 177.933 2.30208e-006 4.58029e-006 1.44118 -17.0581 65.3466 17.5501 8.12813 25.2401 -3.48398 -62.5068 86.4289 -117.386 4.54188e-006 -4.6773e-006 -1.085 14.383 -77.8433 14.5604 -3.49284e-006 5.06013e-006 -1.77072 16.4983 63.1454 -16.134 -8.13473 25.2328 3.48699 
53.0035 57.0833 6.67886 -1.13619 9.34713 3.01452 -0.452488 1.81417 -0.806558 -0.877357 7.63711 -1.5493 -0.860831 9.28184 -1.53736 8.82907 -3.73224 1.24324 -3.32626 6.11968 2.74283 55.0815 2.37614 2.07929 113.731 24.4563 -36.8214 8.72812e-007 1.62902e-006 -5.95815e-006 2.62313 82.1178 -5.1441 1.99411e-006 -3.26096e-006 -2.99999 8.02894 -4.95144 0.697699 -39.446 -1.25614 -1.6745 -122.795 23.673 37.2165 -6.52535e-006 -3.67341e-007 1.36208e-006 -18.3219 79.6368 21.0681 -8.59545e-007 -6.32409e-006 3 -8.02887 -4.95143 -0.697683 96.5094 81.9489 86.7762 180 7.01574e-015 179.048 178.601 75.2825 177.947 2.30208e-006 4.58029e-006 1.44275 -17.0584 65.3407 17.5453 8.12813 25.2401 -3.48398 -65.3666 86.3498 -114.468 4.54188e-006 -4.6773e-006 -1.08482 14.5447 -77.8169 14.699 -3.49284e-006 5.06013e-006 -1.77173 16.5084 63.1516 -16.1364 -8.13473 25.2328 3.48699 
52.9698 57.0905 6.63212 -1.2097 9.12745 2.94371 -0.449773 1.83164 -0.81374 -0.871354 7.67209 -1.56473 -0.854633 9.31681 -1.55292 8.78598 -3.68381 1.29124 -3.27763 6.18511 2.7917 55.1289 2.48565 2.14483 113.77 24.5463 -36.6451 8.72812e-007 1.62902e-006 -5.95815e-006 3.11571 81.9273 -5.55119 1.99411e-006 -3.26096e-006 -2.99999 8.02894 -4.95144 0.697699 -39.4779 -1.44949 -1.49873 -122.841 23.664 37.2941 -6.52535e-006 -3.67341e-007 1.36208e-006 -18.315 79.5773 21.0422 -8.59545e-007 -6.32409e-006 3 -8.02887 -4.95143 -0.697683 97.9453 82.0261 85.3906 180 7.01573e-015 179.043 178.576 75.2359 177.965 2.30208e-006 4.58029e-006 1.44422 -17.0586 65.3351 17.5407 8.12813 25.2401 -3.48398 -68.058 86.2629 -111.72 4.54188e-006 -4.6773e-006 -1.08461 14.6973 -77.7898 14.8295 -3.49284e-006 5.06013e-006 -1.77265 16.5183 63.1577 -16.1389 -8.13473 25.2328 3.48699 
52.9746 57.0612 6.56664 -1.28272 8.91343 2.8763 -0.446765 1.84764 -0.820689 -0.864782 7.7041 -1.57967 -0.847869 9.34883 -1.56802 8.74266 -3.63358 1.33624 -3.23013 6.25129 2.83754 55.1703 2.58973 2.20772 113.814 24.6316 -36.4711 8.72812e-007 1.62902e-006 -5.95815e-006 3.58444 81.7338 -5.93424 1.99411e-006 -3.26096e-006 -2.99999 8.02894 -4.95144 0.697699 -39.5057 -1.6349 -1.33043 -122.889 23.6525 37.3646 -6.52535e-006 -3.67341e-007 1.36208e-006 -18.303 79.5138 21.0097 -8.59545e-007 -6.32409e-006 3 -8.02887 -4.95143 -0.697683 99.3647 82.0943 84.021 180 7.01572e-015 179.039 178.546 75.1909 177.988 2.30208e-006 4.58029e-006 1.4456 -17.0589 65.3299 17.5365 8.12813 25.2401 -3.48398 -70.543 86.1708 -109.179 4.54188e-006 -4.6773e-006 -1.08442 14.8413 -77.7627 14.9521 -3.49284e-006 5.06013e-006 -1.7735 16.5276 63.1635 -16.1412 -8.13473 25.2328 3.48699 
52.9501 57.057 6.52364 -1.35463 8.70661 2.81374 -0.443383 1.86172 -0.827244 -0.857491 7.73227 -1.5938 -0.840392 9.377 -1.5823 8.69999 -3.58089 1.37683 -3.18468 6.31834 2.87908 55.2053 2.68514 2.26585 113.865 24.7105 -36.3021 8.72812e-007 1.62902e-006 -5.95815e-006 4.02547 81.5384 -6.29005 1.99411e-006 -3.26096e-006 -2.99999 8.02894 -4.95144 0.697699 -39.5292 -1.80834 -1.17319 -122.938 23.638 37.4255 -6.52535e-006 -3.67341e-007 1.36208e-006 -18.2851 79.4464 20.9699 -8.59545e-007 -6.32409e-006 3 -8.02887 -4.95143 -0.697683 100.743 82.1522 82.6917 180 7.01571e-015 179.035 178.51 75.1486 178.016 2.30208e-006 4.58029e-006 1.4469 -17.0592 65.325 17.5326 8.12813 25.2401 -3.48398 -72.7934 86.076 -106.875 4.54188e-006 -4.6773e-006 -1.08427 14.9773 -77.7365 15.0673 -3.49284e-006 5.06013e-006 -1.77431 16.5364 63.1687 -16.1432 -8.13473 25.2328 3.48699 
52.9309 57.0508 6.4817 -1.42476 8.50854 2.7575 -0.439545 1.87346 -0.83324 -0.849332 7.75574 -1.60677 -0.832059 9.40046 -1.59544 8.65888 -3.52507 1.41159 -3.14218 6.38634 2.91504 55.2336 2.76868 2.31712 113.922 24.7817 -36.1409 8.72812e-007 1.62902e-006 -5.95815e-006 4.4355 81.3424 -6.61598 1.99411e-006 -3.26096e-006 -2.99999 8.02894 -4.95144 0.697699 -39.5486 -1.9658 -1.03061 -122.989 23.6202 37.4743 -6.52535e-006 -3.67341e-007 1.36208e-006 -18.2611 79.375 20.9223 -8.59545e-007 -6.32409e-006 3 -8.02887 -4.95143 -0.697683 102.053 82.1987 81.429 180 7.01571e-015 179.031 178.468 75.1103 178.048 2.30208e-006 4.58029e-006 1.44813 -17.0594 65.3206 17.5291 8.12813 25.2401 -3.48398 -74.7898 85.9818 -104.827 4.54188e-006 -4.6773e-006 -1.08418 15.1055 -77.7119 15.1754 -3.49284e-006 5.06013e-006 -1.77511 16.5444 63.173 -16.1449 -8.13473 25.2328 3.48699 
52.911 57.0432 6.43513 -1.49244 8.32077 2.70905 -0.43517 1.8824 -0.838516 -0.840157 7.77361 -1.61826 -0.822724 9.41833 -1.60711 8.62022 -3.46545 1.43911 -3.10354 6.4554 2.94413 55.2548 2.83711 2.35942 113.987 24.8436 -35.9901 8.72812e-007 1.62902e-006 -5.95815e-006 4.81165 81.147 -6.90979 1.99411e-006 -3.26096e-006 -2.99999 8.02894 -4.95144 0.697699 -39.5639 -2.10327 -0.90627 -123.04 23.5987 37.5084 -6.52535e-006 -3.67341e-007 1.36208e-006 -18.2303 79.2996 20.8664 -8.59545e-007 -6.32409e-006 3 -8.02887 -4.95143 -0.697683 103.268 82.2329 80.26 180 7.0157e-015 179.028 178.421 75.0773 178.084 2.30208e-006 4.58029e-006 1.44929 -17.0597 65.3167 17.5261 8.12813 25.2401 -3.48398 -76.5193 85.8913 -103.049 4.54188e-006 -4.6773e-006 -1.0842 15.2266 -77.6897 15.2768 -3.49284e-006 5.06013e-006 -1.77593 16.5515 63.1763 -16.146 -8.13473 25.2328 3.48699 
52.8914 57.0429 6.3753 -1.55697 8.14483 2.66983 -0.430175 1.88813 -0.842909 -0.829818 7.78503 -1.62793 -0.812243 9.42975 -1.61699 8.58492 -3.40137 1.45797 -3.06966 6.52562 2.96507 55.2685 2.88722 2.39065 114.06 24.8948 -35.8523 8.72812e-007 1.62902e-006 -5.95815e-006 5.15141 80.9536 -7.16961 1.99411e-006 -3.26096e-006 -2.99999 8.02894 -4.95144 0.697699 -39.5751 -2.21672 -0.803779 -123.092 23.5729 37.5255 -6.52535e-006 -3.67341e-007 1.36208e-006 -18.1923 79.2205 20.8018 -8.59545e-007 -6.32409e-006 3 -8.02887 -4.95143 -0.697683 104.36 82.2542 79.2122 180 7.01569e-015 179.025 178.368 75.0509 178.126 2.30208e-006 4.58029e-006 1.45041 -17.0601 65.3133 17.5235 8.12813 25.2401 -3.48398 -77.9727 85.8077 -101.55 4.54188e-006 -4.6773e-006 -1.08434 15.341 -77.6706 15.3721 -3.49284e-006 5.06013e-006 -1.7768 16.5576 63.1783 -16.1465 -8.13473 25.2328 3.48699 
52.8716 57.0279 6.33747 -1.62002 7.98033 2.63862 -0.424443 1.89085 -0.846742 -0.818054 7.79042 -1.63647 -0.800345 9.43515 -1.62574 8.55185 -3.33357 1.47009 -3.03966 6.59738 2.97962 55.273 2.92337 2.41405 114.143 24.9363 -35.723 8.72812e-007 1.62902e-006 -5.95815e-006 5.46513 80.7587 -7.40435 1.99411e-006 -3.26096e-006 -2.99999 8.02894 -4.95144 0.697699 -39.5809 -2.31116 -0.718928 -123.147 23.5423 37.5271 -6.52535e-006 -3.67341e-007 1.36208e-006 -18.146 79.1361 20.7268 -8.59545e-007 -6.32409e-006 3 -8.02887 -4.95143 -0.697683 105.343 82.265 78.2739 180 7.01569e-015 179.022 178.305 75.0291 178.175 2.30208e-006 4.58029e-006 1.45142 -17.0604 65.3105 17.5215 8.12813 25.2401 -3.48398 -79.1952 85.7299 -100.283 4.54188e-006 -4.6773e-006 -1.08456 15.4466 -77.653 15.4589 -3.49284e-006 5.06013e-006 -1.77764 16.5627 63.1793 -16.1464 -8.13473 25.2328 3.48699 
52.8711 57.0116 6.2861 -1.68386 7.82496 2.61243 -0.41797 1.89131 -0.850507 -0.804821 7.79128 -1.64487 -0.786975 9.436 -1.63438 8.51887 -3.26359 1.47893 -3.01165 6.67092 2.99093 55.2672 2.95352 2.43516 114.238 24.971 -35.5947 8.72812e-007 1.62902e-006 -5.95815e-006 5.76681 80.5579 -7.62593 1.99411e-006 -3.26096e-006 -2.99999 8.02894 -4.95144 0.697699 -39.5803 -2.39604 -0.64346 -123.209 23.507 37.5177 -6.52535e-006 -3.67341e-007 1.36208e-006 -18.091 79.0453 20.6409 -8.59545e-007 -6.32409e-006 3 -8.02887 -4.95143 -0.697683 106.255 82.2693 77.4061 180 7.01568e-015 179.019 178.23 75.0088 178.234 2.30208e-006 4.58029e-006 1.45228 -17.0609 65.3085 17.5202 8.12813 25.2401 -3.48398 -80.2605 85.6543 -99.1739 4.54188e-006 -4.6773e-006 -1.08475 15.5409 -77.6344 15.5351 -3.49284e-006 5.06013e-006 -1.77836 16.5671 63.1796 -16.1461 -8.13473 25.2328 3.48699 
